<svg width="128" height="120" viewBox="0 0 128 120" fill="none" xmlns="http://www.w3.org/2000/svg">
<path fill-rule="evenodd" clip-rule="evenodd" d="M63.9 95C82.9538 95 98.4 79.5538 98.4 60.5C98.4 41.4462 82.9538 26 63.9 26C44.8462 26 29.4 41.4462 29.4 60.5C29.4 79.5538 44.8462 95 63.9 95ZM63.9 90C80.1924 90 93.4 76.7924 93.4 60.5C93.4 44.2076 80.1924 31 63.9 31C47.6076 31 34.4 44.2076 34.4 60.5C34.4 76.7924 47.6076 90 63.9 90Z" fill="#161616"/>
<path d="M37.4 29C34.6386 29 32.4 31.2386 32.4 34V84C32.4 86.7614 34.6386 89 37.4 89H43.4C46.1614 89 48.4 86.7614 48.4 84V54.5118L60.9772 67.089C62.9298 69.0416 66.0956 69.0416 68.0482 67.089L72.2909 62.8464C72.5762 62.561 72.8198 62.2498 73.0218 61.9202L80.4 54.542V84C80.4 86.7614 82.6386 89 85.4 89H91.4C94.1614 89 96.4 86.7614 96.4 84V34C96.4 31.2386 94.1614 29 91.4 29H85.4C83.7566 29 82.2985 29.7928 81.3871 31.0168C81.1742 31.1709 80.9708 31.3438 80.779 31.5355L64.4151 47.8995L48.2492 31.7337C48.0072 31.4916 47.7465 31.2796 47.4718 31.0976C46.5651 29.8278 45.0792 29 43.4 29H37.4Z" fill="#6590FF"/>
<g style="mix-blend-mode:hard-light" filter="url(#filter0_f_3_10)">
<ellipse cx="64" cy="60" rx="38.4" ry="36" fill="#128DFF" fill-opacity="0.176"/>
</g>
<g style="mix-blend-mode:hard-light" filter="url(#filter1_f_3_10)">
<path d="M47.1604 53.4849V55.5118V85C47.1604 87.2977 45.2977 89.1604 43 89.1604H37C34.7023 89.1604 32.8396 87.2977 32.8396 85V35C32.8396 32.7023 34.7023 30.8396 37 30.8396H43C44.3966 30.8396 45.6327 31.5269 46.3886 32.5855L46.4787 32.7117L46.608 32.7974C46.8363 32.9487 47.0534 33.1252 47.2556 33.3273L63.4214 49.4932L64.0151 50.0869L64.6088 49.4932L80.9727 33.1292L80.379 32.5355L80.9727 33.1292C81.1329 32.969 81.3024 32.825 81.4794 32.6969L81.5836 32.6214L81.6605 32.5182C82.4203 31.4978 83.6332 30.8396 85 30.8396H91C93.2977 30.8396 95.1604 32.7023 95.1604 35V85C95.1604 87.2977 93.2977 89.1604 91 89.1604H85C82.7023 89.1604 80.8396 87.2977 80.8396 85V55.542V53.5151L79.4063 54.9483L72.0281 62.3265L71.9578 62.3968L71.9059 62.4816C71.7382 62.7553 71.5355 63.0144 71.2972 63.2527L67.0546 67.4953C65.4298 69.1201 62.7956 69.1201 61.1708 67.4953L48.5937 54.9182L47.1604 53.4849Z" stroke="#0094FF" stroke-width="1.67917"/>
</g>
<g style="mix-blend-mode:hard-light" filter="url(#filter2_f_3_10)">
<path d="M48.7763 54.7355L46.9021 52.8612V55.5118V85C46.9021 87.1551 45.1551 88.9021 43 88.9021H37C34.8449 88.9021 33.0979 87.1551 33.0979 85V35C33.0979 32.8449 34.8449 31.0979 37 31.0979H43C44.3096 31.0979 45.4688 31.742 46.1783 32.7356L46.2962 32.9007L46.4653 33.0128C46.6793 33.1545 46.883 33.3201 47.0729 33.51L63.2387 49.6758L64.0151 50.4522L64.7914 49.6758L81.1554 33.3119L80.3859 32.5424L81.1554 33.3119C81.3059 33.1614 81.465 33.0263 81.6309 32.9061L81.7672 32.8075L81.8677 32.6725C82.5808 31.7148 83.7182 31.0979 85 31.0979H91C93.1551 31.0979 94.9021 32.8449 94.9021 35V85C94.9021 87.1551 93.1551 88.9021 91 88.9021H85C82.8449 88.9021 81.0979 87.1551 81.0979 85V55.542V52.8914L79.2237 54.7657L71.8454 62.1439L71.7535 62.2358L71.6856 62.3466C71.5285 62.6031 71.3384 62.8462 71.1145 63.07L66.8719 67.3127C65.348 68.8365 62.8774 68.8365 61.3535 67.3127L48.7763 54.7355Z" stroke="#0094FF" stroke-width="2.19583"/>
</g>
<g style="mix-blend-mode:hard-light" filter="url(#filter3_ddi_3_10)">
<path d="M47.1604 53.4849V55.5118V85C47.1604 87.2977 45.2977 89.1604 43 89.1604H37C34.7023 89.1604 32.8396 87.2977 32.8396 85V35C32.8396 32.7023 34.7023 30.8396 37 30.8396H43C44.3966 30.8396 45.6327 31.5269 46.3886 32.5855L46.4787 32.7117L46.608 32.7974C46.8363 32.9487 47.0534 33.1252 47.2556 33.3273L63.4214 49.4932L64.0151 50.0869L64.6088 49.4932L80.9727 33.1292L80.379 32.5355L80.9727 33.1292C81.1329 32.969 81.3024 32.825 81.4794 32.6969L81.5836 32.6214L81.6605 32.5182C82.4203 31.4978 83.6332 30.8396 85 30.8396H91C93.2977 30.8396 95.1604 32.7023 95.1604 35V85C95.1604 87.2977 93.2977 89.1604 91 89.1604H85C82.7023 89.1604 80.8396 87.2977 80.8396 85V55.542V53.5151L79.4063 54.9483L72.0281 62.3265L71.9578 62.3968L71.9059 62.4816C71.7382 62.7553 71.5355 63.0144 71.2972 63.2527L67.0546 67.4953C65.4298 69.1201 62.7956 69.1201 61.1708 67.4953L48.5937 54.9182L47.1604 53.4849Z" stroke="#00B3FF" stroke-opacity="0.2" stroke-width="1.67917"/>
</g>
<g filter="url(#filter4_f_3_10)">
<path d="M48.3653 55.1465L47.4833 54.2645V55.5118V85C47.4833 87.4761 45.4761 89.4833 43 89.4833H37C34.5239 89.4833 32.5167 87.4761 32.5167 85V35C32.5167 32.5239 34.5239 30.5167 37 30.5167H43C44.5053 30.5167 45.8374 31.258 46.6514 32.3978L46.7068 32.4755L46.7864 32.5282C47.0325 32.6913 47.2664 32.8815 47.4839 33.099L63.6497 49.2648L64.0151 49.6302L64.3804 49.2648L80.7444 32.9009L80.379 32.5355L80.7444 32.9009C80.9167 32.7285 81.0993 32.5734 81.29 32.4353L81.3542 32.3889L81.4015 32.3254C82.2196 31.2267 83.5268 30.5167 85 30.5167H91C93.4761 30.5167 95.4833 32.5239 95.4833 35V85C95.4833 87.4761 93.4761 89.4833 91 89.4833H85C82.5239 89.4833 80.5167 87.4761 80.5167 85V55.542V54.2947L79.6347 55.1767L72.2565 62.5549L72.2132 62.5981L72.1812 62.6503C72.0004 62.9455 71.7819 63.2246 71.5255 63.481L67.2829 67.7237C65.532 69.4745 62.6934 69.4745 60.9425 67.7237L48.3653 55.1465Z" stroke="#82D9FF" stroke-width="1.03333"/>
</g>
<g filter="url(#filter5_f_3_10)">
<path d="M48.1827 55.3292L47.7417 54.8882V55.5118V85C47.7417 87.6188 45.6188 89.7417 43 89.7417H37C34.3812 89.7417 32.2583 87.6188 32.2583 85V35C32.2583 32.3812 34.3812 30.2583 37 30.2583H43C44.5923 30.2583 46.0013 31.0429 46.8616 32.2477L46.8893 32.2865L46.9291 32.3129C47.1895 32.4855 47.4368 32.6866 47.6666 32.9163L63.8324 49.0822L64.0151 49.2648L64.1978 49.0822L80.5617 32.7182C80.7438 32.5362 80.9368 32.3721 81.1386 32.2261L81.1706 32.2028L81.1943 32.1711C82.059 31.0097 83.4417 30.2583 85 30.2583H91C93.6188 30.2583 95.7417 32.3812 95.7417 35V85C95.7417 87.6188 93.6188 89.7417 91 89.7417H85C82.3812 89.7417 80.2583 87.6188 80.2583 85V55.542V54.9183L79.8173 55.3593L72.4391 62.7375L72.4175 62.7592L72.4015 62.7852C72.2101 63.0976 71.9791 63.3928 71.7082 63.6637L67.4656 67.9063C65.6138 69.7581 62.6116 69.7581 60.7598 67.9063L48.1827 55.3292Z" stroke="white" stroke-width="0.516667"/>
</g>
<defs>
<filter id="filter0_f_3_10" x="18.78" y="17.18" width="90.44" height="85.64" filterUnits="userSpaceOnUse" color-interpolation-filters="sRGB">
<feFlood flood-opacity="0" result="BackgroundImageFix"/>
<feBlend mode="normal" in="SourceGraphic" in2="BackgroundImageFix" result="shape"/>
<feGaussianBlur stdDeviation="3.41" result="effect1_foregroundBlur_3_10"/>
</filter>
<filter id="filter1_f_3_10" x="25.18" y="23.18" width="77.64" height="73.64" filterUnits="userSpaceOnUse" color-interpolation-filters="sRGB">
<feFlood flood-opacity="0" result="BackgroundImageFix"/>
<feBlend mode="normal" in="SourceGraphic" in2="BackgroundImageFix" result="shape"/>
<feGaussianBlur stdDeviation="3.41" result="effect1_foregroundBlur_3_10"/>
</filter>
<filter id="filter2_f_3_10" x="29.7267" y="27.7267" width="68.5467" height="64.5467" filterUnits="userSpaceOnUse" color-interpolation-filters="sRGB">
<feFlood flood-opacity="0" result="BackgroundImageFix"/>
<feBlend mode="normal" in="SourceGraphic" in2="BackgroundImageFix" result="shape"/>
<feGaussianBlur stdDeviation="1.13667" result="effect1_foregroundBlur_3_10"/>
</filter>
<filter id="filter3_ddi_3_10" x="29.0447" y="29.318" width="69.9107" height="65.9107" filterUnits="userSpaceOnUse" color-interpolation-filters="sRGB">
<feFlood flood-opacity="0" result="BackgroundImageFix"/>
<feColorMatrix in="SourceAlpha" type="matrix" values="0 0 0 0 0 0 0 0 0 0 0 0 0 0 0 0 0 0 127 0" result="hardAlpha"/>
<feOffset dy="1.67917"/>
<feGaussianBlur stdDeviation="0.645833"/>
<feColorMatrix type="matrix" values="0 0 0 0 0 0 0 0 0 0.051 0 0 0 0 0.082 0 0 0 0.7 0"/>
<feBlend mode="multiply" in2="BackgroundImageFix" result="effect1_dropShadow_3_10"/>
<feColorMatrix in="SourceAlpha" type="matrix" values="0 0 0 0 0 0 0 0 0 0 0 0 0 0 0 0 0 0 127 0" result="hardAlpha"/>
<feOffset dy="2.27333"/>
<feGaussianBlur stdDeviation="1.47767"/>
<feColorMatrix type="matrix" values="0 0 0 0 0 0 0 0 0 0.4 0 0 0 0 1 0 0 0 1 0"/>
<feBlend mode="color-dodge" in2="effect1_dropShadow_3_10" result="effect2_dropShadow_3_10"/>
<feBlend mode="normal" in="SourceGraphic" in2="effect2_dropShadow_3_10" result="shape"/>
<feColorMatrix in="SourceAlpha" type="matrix" values="0 0 0 0 0 0 0 0 0 0 0 0 0 0 0 0 0 0 127 0" result="hardAlpha"/>
<feOffset dx="-0.167917" dy="0.335833"/>
<feGaussianBlur stdDeviation="0.0839583"/>
<feComposite in2="hardAlpha" operator="arithmetic" k2="-1" k3="1"/>
<feColorMatrix type="matrix" values="0 0 0 0 1 0 0 0 0 1 0 0 0 0 1 0 0 0 0.5 0"/>
<feBlend mode="normal" in2="shape" result="effect3_innerShadow_3_10"/>
</filter>
<filter id="filter4_f_3_10" x="31.7417" y="29.7417" width="64.5167" height="60.5167" filterUnits="userSpaceOnUse" color-interpolation-filters="sRGB">
<feFlood flood-opacity="0" result="BackgroundImageFix"/>
<feBlend mode="normal" in="SourceGraphic" in2="BackgroundImageFix" result="shape"/>
<feGaussianBlur stdDeviation="0.129167" result="effect1_foregroundBlur_3_10"/>
</filter>
<filter id="filter5_f_3_10" x="31.8278" y="29.8278" width="64.3444" height="60.3444" filterUnits="userSpaceOnUse" color-interpolation-filters="sRGB">
<feFlood flood-opacity="0" result="BackgroundImageFix"/>
<feBlend mode="normal" in="SourceGraphic" in2="BackgroundImageFix" result="shape"/>
<feGaussianBlur stdDeviation="0.0861111" result="effect1_foregroundBlur_3_10"/>
</filter>
</defs>
</svg>
